<svg xmlns="http://www.w3.org/2000/svg" viewBox="0 0 24 24" id="Interface-Essential-Map--Streamline-Pixel.svg" height="24" width="24"><desc>Interface Essential Map Streamline Icon: https://streamlinehq.com</desc><title>interface-essential-map</title><g><path d="m22.8525 20.56875 -1.1400000000000001 0 0 1.1475 -5.715 0 0 -4.574999999999999 -1.1400000000000001 0 0 4.574999999999999 -3.4275 0 0 -1.1475 -1.1475 0 0 1.1475 -7.995 0 0 -1.1475 -1.1475 0 0 1.1475 -1.1400000000000001 0 0 1.1400000000000001 24 0 0 -1.1400000000000001 -1.1475 0 0 -1.1475z" fill="#000000" stroke-width="1"></path><path d="M20.572499999999998 18.28875h1.1400000000000001v2.2800000000000002h-1.1400000000000001Z" fill="#000000" stroke-width="1"></path><path d="M19.424999999999997 16.00125h1.1475v2.2874999999999996H19.424999999999997Z" fill="#000000" stroke-width="1"></path><path d="m17.137500000000003 14.861250000000002 0 1.1400000000000001 2.2874999999999996 0 0 -2.2874999999999996 -1.1400000000000001 0 0 1.1475 -1.1475 0z" fill="#000000" stroke-width="1"></path><path d="M15.997499999999999 16.00125h1.1400000000000001v1.1400000000000001h-1.1400000000000001Z" fill="#000000" stroke-width="1"></path><path d="M7.995 19.42875h2.2874999999999996v1.1400000000000001h-2.2874999999999996Z" fill="#000000" stroke-width="1"></path><path d="M9.1425 16.00125h1.1400000000000001v1.1400000000000001h-1.1400000000000001Z" fill="#000000" stroke-width="1"></path><path d="M7.995 17.14125h1.1475v1.1475h-1.1475Z" fill="#000000" stroke-width="1"></path><path d="M4.5675 18.28875h3.4275v1.1400000000000001H4.5675Z" fill="#000000" stroke-width="1"></path><path d="M11.43 13.713750000000001v1.1475h-1.1475v1.1400000000000001h1.1475v2.2874999999999996h1.1400000000000001v-2.2874999999999996h1.1400000000000001v-1.1400000000000001h-1.1400000000000001v-1.1475h1.1400000000000001v1.1475h1.1475v-1.1475h3.4275v-1.1400000000000001h-5.715V9.149999999999999h1.1400000000000001v-1.1475h1.1475V6.85875h1.1400000000000001v-3.4275h-1.1400000000000001v-1.1475h-1.1475v-1.1400000000000001h-3.4275v1.1400000000000001h-1.1400000000000001v1.1475h-1.1475v3.4275h1.1475v1.1400000000000001h1.1400000000000001V9.149999999999999h1.1475v3.4275H5.715v1.1400000000000001Zm0 -10.2825h2.2800000000000002v2.2874999999999996h-1.1400000000000001V4.574999999999999h-1.1400000000000001Z" fill="#000000" stroke-width="1"></path><path d="M4.5675 13.713750000000001h1.1475v2.2874999999999996H4.5675Z" fill="#000000" stroke-width="1"></path><path d="M3.4275 16.00125h1.1400000000000001v2.2874999999999996H3.4275Z" fill="#000000" stroke-width="1"></path><path d="M2.2874999999999996 18.28875h1.1400000000000001v2.2800000000000002H2.2874999999999996Z" fill="#000000" stroke-width="1"></path></g></svg>