<svg xmlns="http://www.w3.org/2000/svg" viewBox="0 0 24 24" id="Interface-Essential-Calendar-Appointment--Streamline-Pixel.svg" height="24" width="24"><desc>Interface Essential Calendar Appointment Streamline Icon: https://streamlinehq.com</desc><title>interface-essential-calendar-appointment</title><g><path d="m1.71375 8.0025 20.572499999999998 0 0 14.857499999999998 1.1400000000000001 0 0 -18.285 -1.1400000000000001 0 0 2.2800000000000002 -20.572499999999998 0 0 -2.2800000000000002 -1.1400000000000001 0 0 18.285 1.1400000000000001 0 0 -14.857499999999998z" fill="#000000" stroke-width="1"></path><path d="M21.146250000000002 3.4275h1.1400000000000001V4.574999999999999h-1.1400000000000001Z" fill="#000000" stroke-width="1"></path><path d="M1.71375 22.86h20.572499999999998V24H1.71375Z" fill="#000000" stroke-width="1"></path><path d="m18.85875 13.7175 -2.2874999999999996 0 0 1.1400000000000001 -1.1400000000000001 0 0 -1.1400000000000001 -2.2874999999999996 0 0 1.1400000000000001 -1.1400000000000001 0 0 2.2874999999999996 1.1400000000000001 0 0 1.1400000000000001 1.1400000000000001 0 0 1.1400000000000001 1.1475 0 0 1.1475 1.1400000000000001 0 0 -1.1475 1.1400000000000001 0 0 -1.1400000000000001 1.1475 0 0 -1.1400000000000001 1.1400000000000001 0 0 -2.2874999999999996 -1.1400000000000001 0 0 -1.1400000000000001z" fill="#000000" stroke-width="1"></path><path d="M17.71125 10.2825h1.1475v1.1475h-1.1475Z" fill="#000000" stroke-width="1"></path><path d="M13.143749999999999 10.2825h1.1400000000000001v1.1475h-1.1400000000000001Z" fill="#000000" stroke-width="1"></path><path d="M8.568750000000001 19.424999999999997h1.1475v1.1475h-1.1475Z" fill="#000000" stroke-width="1"></path><path d="M8.568750000000001 14.857499999999998h1.1475v1.1400000000000001h-1.1475Z" fill="#000000" stroke-width="1"></path><path d="M8.568750000000001 10.2825h1.1475v1.1475h-1.1475Z" fill="#000000" stroke-width="1"></path><path d="M4.00125 19.424999999999997h1.1400000000000001v1.1475h-1.1400000000000001Z" fill="#000000" stroke-width="1"></path><path d="M4.00125 14.857499999999998h1.1400000000000001v1.1400000000000001h-1.1400000000000001Z" fill="#000000" stroke-width="1"></path><path d="M4.00125 10.2825h1.1400000000000001v1.1475h-1.1400000000000001Z" fill="#000000" stroke-width="1"></path><path d="m6.28875 3.4275 0 1.1475 1.1400000000000001 0 0 -1.1475 9.1425 0 0 1.1475 1.1400000000000001 0 0 -1.1475 3.435 0 0 -1.1400000000000001 -3.435 0 0 -2.2874999999999996 -1.1400000000000001 0 0 2.2874999999999996 -9.1425 0 0 -2.2874999999999996 -1.1400000000000001 0 0 2.2874999999999996 -3.4275 0 0 1.1400000000000001 3.4275 0z" fill="#000000" stroke-width="1"></path><path d="M1.71375 3.4275h1.1475V4.574999999999999h-1.1475Z" fill="#000000" stroke-width="1"></path></g></svg>