<svg xmlns="http://www.w3.org/2000/svg" viewBox="0 0 24 24" id="Interface-Essential-Signin-Login--Streamline-Pixel.svg" height="24" width="24"><desc>Interface Essential Signin Login Streamline Icon: https://streamlinehq.com</desc><title>interface-essential-signin-login</title><g><path d="M17.038425 6.9579V8.075099999999999H15.913874999999999V9.19965H14.796675V10.31685H13.679475V12.558600000000002H14.796675V13.6758H15.913874999999999V14.800349999999998H17.038425V15.917550000000002H18.155625V12.558600000000002H22.639125V10.31685H18.155625V6.9579H17.038425Z" fill="#000000" stroke-width="1"></path><path d="M15.913874999999999 18.159299999999998H17.038425V20.401049999999998H15.913874999999999Z" fill="#000000" stroke-width="1"></path><path d="M15.913874999999999 1.3572000000000002H17.038425V4.71615H15.913874999999999Z" fill="#000000" stroke-width="1"></path><path d="M11.437725 22.63545V21.51825H15.913874999999999V20.401049999999998H11.437725V5.8407H10.320525V22.63545H11.437725Z" fill="#000000" stroke-width="1"></path><path d="M6.954224999999999 22.63545H10.320525V23.759999999999998H6.954224999999999Z" fill="#000000" stroke-width="1"></path><path d="M8.078775 12.558600000000002H9.195975V14.800349999999998H8.078775Z" fill="#000000" stroke-width="1"></path><path d="M8.078775 4.71615H10.320525V5.8407H8.078775Z" fill="#000000" stroke-width="1"></path><path d="M4.719825 21.51825H6.954224999999999V22.63545H4.719825Z" fill="#000000" stroke-width="1"></path><path d="M5.837025000000001 3.5989500000000003H8.078775V4.71615H5.837025000000001Z" fill="#000000" stroke-width="1"></path><path d="M2.478075 20.401049999999998H4.719825V21.51825H2.478075Z" fill="#000000" stroke-width="1"></path><path d="M3.595275 2.48175H5.837025000000001V3.5989500000000003H3.595275Z" fill="#000000" stroke-width="1"></path><path d="M2.478075 0.24V1.3572000000000002H1.360875V20.401049999999998H2.478075V2.48175H3.595275V1.3572000000000002H15.913874999999999V0.24H2.478075Z" fill="#000000" stroke-width="1"></path></g></svg>