<svg xmlns="http://www.w3.org/2000/svg" viewBox="0 0 24 24" id="Technology-Robot-Ai-Signal-1--Streamline-Pixel.svg" height="24" width="24"><desc>Technology Robot Ai Signal 1 Streamline Icon: https://streamlinehq.com</desc><title>technology-robot-ai-signal-1</title><g><path d="M21.71625 12.57h1.1400000000000001v5.715h-1.1400000000000001Z" fill="#000000" stroke-width="1"></path><path d="M20.56875 1.1400000000000001h1.1475v4.574999999999999h-1.1475Z" fill="#000000" stroke-width="1"></path><path d="m20.56875 12.57 1.1475 0 0 -1.1400000000000001 -1.1475 0 0 -1.1475 -1.1400000000000001 0 0 11.43 1.1400000000000001 0 0 -2.2874999999999996 1.1475 0 0 -1.1400000000000001 -1.1475 0 0 -5.715z" fill="#000000" stroke-width="1"></path><path d="M19.42875 5.715h1.1400000000000001v1.1400000000000001h-1.1400000000000001Z" fill="#000000" stroke-width="1"></path><path d="M19.42875 0h1.1400000000000001v1.1400000000000001h-1.1400000000000001Z" fill="#000000" stroke-width="1"></path><path d="M18.28125 21.7125h1.1475v1.1475h-1.1475Z" fill="#000000" stroke-width="1"></path><path d="M18.28125 9.1425h1.1475v1.1400000000000001h-1.1475Z" fill="#000000" stroke-width="1"></path><path d="M17.14125 12.57h1.1400000000000001v2.2874999999999996h-1.1400000000000001Z" fill="#000000" stroke-width="1"></path><path d="M17.14125 2.2874999999999996h1.1400000000000001v2.2800000000000002h-1.1400000000000001Z" fill="#000000" stroke-width="1"></path><path d="M5.71125 22.86h12.57V24H5.71125Z" fill="#000000" stroke-width="1"></path><path d="M14.85375 11.43h2.2874999999999996v1.1400000000000001h-2.2874999999999996Z" fill="#000000" stroke-width="1"></path><path d="M16.00125 4.5675h1.1400000000000001v1.1475h-1.1400000000000001Z" fill="#000000" stroke-width="1"></path><path d="M16.00125 1.1400000000000001h1.1400000000000001v1.1475h-1.1400000000000001Z" fill="#000000" stroke-width="1"></path><path d="M14.85375 14.857499999999998h2.2874999999999996v1.1400000000000001h-2.2874999999999996Z" fill="#000000" stroke-width="1"></path><path d="m7.998749999999999 18.285 0 1.1400000000000001 1.1400000000000001 0 0 1.1475 1.1475 0 0 1.1400000000000001 3.4275 0 0 -1.1400000000000001 1.1400000000000001 0 0 -1.1475 1.1475 0 0 -1.1400000000000001 -8.0025 0z" fill="#000000" stroke-width="1"></path><path d="M13.713750000000001 12.57h1.1400000000000001v2.2874999999999996h-1.1400000000000001Z" fill="#000000" stroke-width="1"></path><path d="m10.286249999999999 17.145 3.4275 0 0 -1.1475 -1.1475 0 0 -1.1400000000000001 -1.1400000000000001 0 0 1.1400000000000001 -1.1400000000000001 0 0 1.1475z" fill="#000000" stroke-width="1"></path><path d="M9.13875 12.57h1.1475v2.2874999999999996h-1.1475Z" fill="#000000" stroke-width="1"></path><path d="M6.85875 14.857499999999998h2.2800000000000002v1.1400000000000001h-2.2800000000000002Z" fill="#000000" stroke-width="1"></path><path d="M6.85875 11.43h2.2800000000000002v1.1400000000000001h-2.2800000000000002Z" fill="#000000" stroke-width="1"></path><path d="m18.28125 9.1425 0 -1.1400000000000001 -5.715 0 0 -2.2874999999999996 1.1475 0 0 -1.1475 1.1400000000000001 0 0 -3.4275 -1.1400000000000001 0 0 -1.1400000000000001 -3.4275 0 0 1.1400000000000001 -1.1475 0 0 3.4275 1.1475 0 0 1.1475 1.1400000000000001 0 0 2.2874999999999996 -5.715 0 0 1.1400000000000001 12.57 0z" fill="#000000" stroke-width="1"></path><path d="M6.85875 4.5675h1.1400000000000001v1.1475h-1.1400000000000001Z" fill="#000000" stroke-width="1"></path><path d="M6.85875 1.1400000000000001h1.1400000000000001v1.1475h-1.1400000000000001Z" fill="#000000" stroke-width="1"></path><path d="M5.71125 12.57h1.1475v2.2874999999999996h-1.1475Z" fill="#000000" stroke-width="1"></path><path d="M5.71125 2.2874999999999996h1.1475v2.2800000000000002h-1.1475Z" fill="#000000" stroke-width="1"></path><path d="M4.57125 21.7125h1.1400000000000001v1.1475h-1.1400000000000001Z" fill="#000000" stroke-width="1"></path><path d="M4.57125 9.1425h1.1400000000000001v1.1400000000000001h-1.1400000000000001Z" fill="#000000" stroke-width="1"></path><path d="m4.57125 10.2825 -1.1475 0 0 1.1475 -1.1400000000000001 0 0 1.1400000000000001 1.1400000000000001 0 0 5.715 -1.1400000000000001 0 0 1.1400000000000001 1.1400000000000001 0 0 2.2874999999999996 1.1475 0 0 -11.43z" fill="#000000" stroke-width="1"></path><path d="M3.42375 5.715h1.1475v1.1400000000000001h-1.1475Z" fill="#000000" stroke-width="1"></path><path d="M3.42375 0h1.1475v1.1400000000000001h-1.1475Z" fill="#000000" stroke-width="1"></path><path d="M2.28375 1.1400000000000001h1.1400000000000001v4.574999999999999h-1.1400000000000001Z" fill="#000000" stroke-width="1"></path><path d="M1.1437499999999998 12.57h1.1400000000000001v5.715h-1.1400000000000001Z" fill="#000000" stroke-width="1"></path></g></svg>